<svg id="Layer_1" data-name="Layer 1" xmlns="http://www.w3.org/2000/svg" xmlns:xlink="http://www.w3.org/1999/xlink" width="174.43" height="130.25" viewBox="0 0 174.43 130.25"><defs><style>.cls-1,.cls-10,.cls-2{fill:none;}.cls-2{stroke:#aaa;}.cls-10,.cls-2,.cls-8{stroke-miterlimit:10;}.cls-3{fill:#c3c3c3;}.cls-4{fill:#aaa;}.cls-5{fill:#777;}.cls-6{fill:#0b7fd9;}.cls-7{fill:#0060bf;}.cls-8{fill:#b7743e;stroke-width:0.5px;}.cls-10,.cls-8{stroke:#a2632f;}.cls-9{clip-path:url(#clip-path);}.cls-10{stroke-width:0.51px;}.cls-11{fill:#00568c;}.cls-12{fill:#0f78bf;}.cls-13{fill:#fff;}</style><clipPath id="clip-path"><path class="cls-1" d="M97.28,130H82.09V113.64a10.21,10.21,0,0,1,10.17-10.18h0a10.21,10.21,0,0,1,10.18,10.18V130H97.28"/></clipPath></defs><title>Artboard 1</title><line class="cls-2" x1="156.08" y1="52.42" x2="156.08" y2="71.48"/><polygon class="cls-3" points="133.46 70.43 131.16 70.43 47.09 70.43 44.78 70.43 44.78 74.4 47.09 74.4 47.09 92.95 131.16 92.95 131.16 74.4 133.46 74.4 133.46 70.43"/><path class="cls-4" d="M34,64.83,31.3,67.32v2.61H28.9V67.32l-2.69-2.49-2.74,2.49v2.61H21.08V67.32l-2.7-2.49-2.73,2.49v2.61H13.26V67.32l-2.7-2.49L7.82,67.32v2.61H5.43V67.32L2.74,64.83,0,67.32V75.4a2.5,2.5,0,0,0,2.49,2.5H34.23a2.5,2.5,0,0,0,2.5-2.5V69.93h0V67.32Z"/><rect class="cls-3" x="2.62" y="77.91" width="31.49" height="52.12"/><rect class="cls-4" x="2.62" y="77.91" width="20.85" height="52.12"/><polygon class="cls-5" points="7.82 69.93 7.82 67.32 10.56 64.83 10.56 69.93 7.82 69.93"/><polygon class="cls-5" points="15.65 69.93 15.65 67.32 18.38 64.83 18.38 69.93 15.65 69.93"/><polygon class="cls-5" points="23.47 69.93 23.47 67.32 26.21 64.83 26.21 69.93 23.47 69.93"/><polygon class="cls-5" points="31.3 69.93 31.3 67.32 34.03 64.83 34.03 69.93 31.3 69.93"/><polyline class="cls-4" points="36.73 75.4 36.73 69.93 36.73 69.93"/><path class="cls-4" d="M34.23,77.9a2.5,2.5,0,0,0,2.5-2.5"/><rect class="cls-5" x="2.62" y="77.91" width="10.43" height="52.12"/><rect class="cls-5" x="47.04" y="74.28" width="10.43" height="18.87"/><rect class="cls-5" x="15.65" y="54.28" width="2.73" height="34.03" transform="translate(-54.28 88.32) rotate(-90)"/><rect class="cls-5" x="15.83" y="87.52" width="5.07" height="10.86" rx="2.54" ry="2.54"/><path class="cls-4" d="M171.73,64.83,169,67.32v2.61h-2.4V67.32l-2.69-2.49-2.74,2.49v2.61h-2.39V67.32l-2.7-2.49-2.73,2.49v2.61H151V67.32l-2.7-2.49-2.74,2.49v2.61h-2.39V67.32l-2.69-2.49-2.74,2.49V75.4a2.5,2.5,0,0,0,2.5,2.5h31.73a2.5,2.5,0,0,0,2.5-2.5V69.93h0V67.32Z"/><rect class="cls-3" x="140.32" y="77.91" width="31.49" height="52.12"/><path class="cls-3" d="M140.38,93H25.69v5.91H28V130H140.3S140.28,92.92,140.38,93Z"/><rect class="cls-3" x="77.19" y="43.27" width="28.18" height="44.04"/><rect class="cls-4" x="74.28" y="38.06" width="34.01" height="5.21"/><polygon class="cls-6" points="91.68 0 107.43 38.06 75.15 38.06 91.68 0"/><polyline class="cls-7" points="91.29 38.06 75.15 38.06 91.68 0 91.29 38.06"/><rect class="cls-4" x="140.32" y="77.91" width="20.85" height="52.12"/><polygon class="cls-5" points="137.7 69.93 137.7 67.32 140.44 64.83 140.44 69.93 137.7 69.93"/><path class="cls-4" d="M110.4,83.77l-3.4,2.5v2.61h-3V86.27l-3.35-2.5-3.4,2.5v2.61h-3V86.27L91,83.77l-3.4,2.5v2.61h-3V86.27l-3.35-2.5-3.39,2.5v2.61h-3V86.27l-3.34-2.5-3.4,2.5v8.07a2.84,2.84,0,0,0,3.1,2.5h39.42a2.85,2.85,0,0,0,3.1-2.5V88.88h0V86.27Z"/><polygon class="cls-5" points="77.84 88.88 77.84 86.27 81.24 83.77 81.24 88.88 77.84 88.88"/><polygon class="cls-5" points="87.56 88.88 87.56 86.27 90.96 83.77 90.96 88.88 87.56 88.88"/><polygon class="cls-5" points="97.28 88.88 97.28 86.27 100.68 83.77 100.68 88.88 97.28 88.88"/><polygon class="cls-5" points="107 88.88 107 86.27 110.4 83.77 110.4 88.88 107 88.88"/><polyline class="cls-4" points="113.75 94.34 113.75 88.88 113.75 88.88"/><rect class="cls-5" x="87.9" y="69.11" width="2.73" height="42.27" transform="translate(-0.98 179.51) rotate(-90)"/><polygon class="cls-5" points="68.13 88.88 68.13 86.27 71.53 83.77 71.53 88.88 68.13 88.88"/><polygon class="cls-5" points="145.53 69.93 145.53 67.32 148.26 64.83 148.26 69.93 145.53 69.93"/><polygon class="cls-5" points="153.35 69.93 153.35 67.32 156.09 64.83 156.09 69.93 153.35 69.93"/><polygon class="cls-5" points="161.17 69.93 161.17 67.32 163.91 64.83 163.91 69.93 161.17 69.93"/><polygon class="cls-5" points="169 69.93 169 67.32 171.73 64.83 171.73 69.93 169 69.93"/><polyline class="cls-4" points="174.43 75.4 174.43 69.93 174.43 69.93"/><path class="cls-4" d="M171.93,77.9a2.5,2.5,0,0,0,2.5-2.5"/><path class="cls-4" d="M137.7,75.4a2.5,2.5,0,0,0,2.5,2.5"/><rect class="cls-5" x="140.32" y="77.91" width="10.43" height="52.12"/><rect class="cls-5" x="153.35" y="54.28" width="2.73" height="34.03" transform="translate(83.42 226.02) rotate(-90)"/><rect class="cls-5" x="153.53" y="87.52" width="5.07" height="10.86" rx="2.54" ry="2.54"/><rect class="cls-4" x="88.86" y="45.16" width="4.15" height="8.88" rx="2.07" ry="2.07"/><rect class="cls-4" x="120.93" y="84.88" width="5.07" height="10.86" rx="2.54" ry="2.54"/><rect class="cls-4" x="55.51" y="84.88" width="5.07" height="10.86" rx="2.54" ry="2.54"/><rect class="cls-4" x="96.41" y="61.95" width="5.07" height="10.86" rx="2.54" ry="2.54"/><polygon class="cls-5" points="40.72 93.03 25.69 93.03 25.69 98.94 27.97 98.94 27.97 130 40.58 130 40.72 93.03"/><polygon class="cls-4" points="140.19 93.03 137.22 93.03 28.67 93.03 25.69 93.03 25.69 97.01 28.67 97.01 137.22 97.01 140.19 97.01 140.19 93.03"/><rect class="cls-5" x="127.14" y="102.82" width="5.07" height="10.86" rx="2.54" ry="2.54"/><rect class="cls-5" x="111.21" y="102.82" width="5.07" height="10.86" rx="2.54" ry="2.54"/><rect class="cls-5" x="63.69" y="102.82" width="5.07" height="10.86" rx="2.54" ry="2.54"/><path class="cls-8" d="M97.28,130H82.09V113.64a10.21,10.21,0,0,1,10.17-10.18h0a10.21,10.21,0,0,1,10.18,10.18V130H97.28"/><rect class="cls-5" x="47.76" y="102.82" width="5.07" height="10.86" rx="2.54" ry="2.54"/><line class="cls-2" x1="18.49" y1="50.74" x2="18.49" y2="69.79"/><rect class="cls-5" x="77.19" y="43.27" width="10.43" height="27.27"/><rect class="cls-4" x="75.71" y="55.63" width="31.16" height="2.72"/><rect class="cls-4" x="80.41" y="61.95" width="5.07" height="10.86" rx="2.54" ry="2.54"/><polygon class="cls-4" points="133.46 70.43 131.16 70.43 47.09 70.43 44.78 70.43 44.78 74.4 47.09 74.4 131.16 74.4 133.46 74.4 133.46 70.43"/><g class="cls-9"><rect class="cls-10" x="87.14" y="102.93" width="5.08" height="27.35"/><polyline class="cls-10" points="97.31 130.27 92.23 130.27 92.23 102.92 97.31 102.92 97.31 130.27"/></g><polygon class="cls-11" points="33.21 52.09 24.23 52.09 24.23 59.81 33.21 59.81 27.84 55.95 33.21 52.09"/><rect class="cls-12" x="17.95" y="50.76" width="8.93" height="7.72"/><polygon class="cls-11" points="170.88 53.74 161.9 53.74 161.9 61.47 170.88 61.47 165.51 57.6 170.88 53.74"/><rect class="cls-12" x="155.62" y="52.42" width="8.93" height="7.72"/><path class="cls-13" d="M90.37,30.71l.39-3.13-3.37.25-.86-1.76c.43-1.29.84-2.52,1.24-3.69.17-.5.33-1,.5-1.54l.5-1.53c.17-.5.32-1,.46-1.41l.39-1.15c.55,0,1.07,0,1.56-.05s1-.09,1.57-.17c-.48,1.22-.93,2.43-1.34,3.66s-.81,2.47-1.2,3.73c0,.09,0,.17,0,.24a1.58,1.58,0,0,1-.06.23H91.5c0-.09,0-.23.08-.44s.08-.44.14-.71.1-.57.16-.9.12-.66.19-1c.13-.75.28-1.58.47-2.48.41-.07.84-.12,1.27-.18l1.09-.13,1-.1c0,.13,0,.35-.11.66s-.12.67-.19,1.06-.15.81-.22,1.25-.15.86-.22,1.25-.15.74-.2,1.06-.09.53-.12.66h1.12l-.8,3.13h-1L94,30.08Z"/></svg>