<?xml version="1.0" encoding="utf-8"?>
<!-- Generator: Adobe Illustrator 22.0.1, SVG Export Plug-In . SVG Version: 6.00 Build 0)  -->
<svg version="1.1" id="Layer_1" xmlns="http://www.w3.org/2000/svg" xmlns:xlink="http://www.w3.org/1999/xlink" x="0px" y="0px"
	 viewBox="0 0 175.9 134.2" style="enable-background:new 0 0 175.9 134.2;" xml:space="preserve">
<style type="text/css">
	.st0{fill:#64B734;}
	.st1{fill:#0049B2;}
	.st2{fill:none;stroke:#9B9B9B;stroke-miterlimit:10;}
	.st3{fill:#B7B7B7;}
	.st4{fill:#9B9B9B;}
	.st5{fill:#777777;}
	.st6{fill:#1168D1;}
	.st7{fill:#FFFFFF;}
	.st8{fill:#E5C570;}
</style>
<rect y="127" class="st0" width="173.4" height="7.2"/>
<g>
	<polygon class="st1" points="170.5,58.9 157.9,64.1 157.9,53.4 	"/>
	<line class="st2" x1="157.5" y1="52.4" x2="157.5" y2="71.5"/>
	<polygon class="st3" points="134.9,70.4 132.6,70.4 48.5,70.4 46.2,70.4 46.2,74.4 48.5,74.4 48.5,93 132.6,93 132.6,74.4 
		134.9,74.4 	"/>
	<path class="st4" d="M35.5,64.8l-2.7,2.5v2.6h-2.4v-2.6l-2.7-2.5l-2.7,2.5v2.6h-2.4v-2.6l-2.7-2.5l-2.7,2.5v2.6h-2.4v-2.6L12,64.8
		l-2.7,2.5v2.6H6.9v-2.6l-2.7-2.5l-2.7,2.5v2.6v5.5c0,1.4,1.1,2.5,2.5,2.5h31.7c1.4,0,2.5-1.1,2.5-2.5v-5.5h0v-2.6L35.5,64.8z"/>
	<rect x="4.1" y="77.9" class="st3" width="31.5" height="52.1"/>
	<rect x="4.1" y="77.9" class="st4" width="20.9" height="52.1"/>
	<polygon class="st5" points="9.3,69.9 9.3,67.3 12,64.8 12,69.9 	"/>
	<polygon class="st5" points="17.1,69.9 17.1,67.3 19.8,64.8 19.8,69.9 	"/>
	<polygon class="st5" points="24.9,69.9 24.9,67.3 27.6,64.8 27.6,69.9 	"/>
	<polygon class="st5" points="32.7,69.9 32.7,67.3 35.5,64.8 35.5,69.9 	"/>
	<polyline class="st4" points="38.2,75.4 38.2,69.9 38.2,69.9 	"/>
	<path class="st4" d="M35.7,77.9c1.4,0,2.5-1.1,2.5-2.5"/>
	<line class="st4" x1="3.9" y1="77.9" x2="35.7" y2="77.9"/>
	<rect x="4.1" y="77.9" class="st5" width="10.4" height="52.1"/>
	<rect x="48.5" y="74.3" class="st5" width="10.4" height="18.9"/>
	
		<rect x="17.1" y="54.3" transform="matrix(6.123234e-17 -1 1 6.123234e-17 -52.8464 89.7534)" class="st5" width="2.7" height="34"/>
	<path class="st5" d="M19.8,87.5L19.8,87.5c1.4,0,2.5,1.1,2.5,2.5v5.8c0,1.4-1.1,2.5-2.5,2.5h0c-1.4,0-2.5-1.1-2.5-2.5v-5.8
		C17.3,88.7,18.4,87.5,19.8,87.5z"/>
	<path class="st4" d="M173.2,64.8l-2.7,2.5v2.6H168v-2.6l-2.7-2.5l-2.7,2.5v2.6h-2.4v-2.6l-2.7-2.5l-2.7,2.5v2.6h-2.4v-2.6l-2.7-2.5
		l-2.7,2.5v2.6h-2.4v-2.6l-2.7-2.5l-2.7,2.5v2.6v5.5c0,1.4,1.1,2.5,2.5,2.5h31.7c1.4,0,2.5-1.1,2.5-2.5v-5.5h0v-2.6L173.2,64.8z"/>
	<rect x="141.8" y="77.9" class="st3" width="31.5" height="52.1"/>
	<path class="st3" d="M141.8,93L141.8,93H27.1v5.9h2.3V130h112.3C141.7,130,141.7,92.9,141.8,93z"/>
	<rect x="78.6" y="43.3" class="st3" width="28.2" height="44"/>
	<rect x="75.7" y="38.1" class="st4" width="34" height="5.2"/>
	<polygon class="st6" points="93.1,0 108.9,38.1 76.6,38.1 	"/>
	<polyline class="st1" points="92.7,38.1 76.6,38.1 93.1,0 92.7,38.1 	"/>
	<polygon class="st1" points="7.3,56.9 19.9,51.7 19.9,62.4 	"/>
	<rect x="141.8" y="77.9" class="st4" width="20.9" height="52.1"/>
	<polygon class="st5" points="139.1,69.9 139.1,67.3 141.9,64.8 141.9,69.9 	"/>
	<g>
		<path class="st4" d="M111.8,83.8l-3.4,2.5v2.6h-3v-2.6l-3.3-2.5l-3.4,2.5v2.6h-3v-2.6l-3.3-2.5L89,86.3v2.6h-3v-2.6l-3.3-2.5
			l-3.4,2.5v2.6h-3v-2.6L73,83.8l-3.4,2.5v2.6v5.5c0,1.4,1.4,2.5,3.1,2.5h39.4c1.7,0,3.1-1.1,3.1-2.5v-5.5h0v-2.6L111.8,83.8z"/>
		<polygon class="st5" points="79.3,88.9 79.3,86.3 82.7,83.8 82.7,88.9 		"/>
		<polygon class="st5" points="89,88.9 89,86.3 92.4,83.8 92.4,88.9 		"/>
		<polygon class="st5" points="98.7,88.9 98.7,86.3 102.1,83.8 102.1,88.9 		"/>
		<polygon class="st5" points="108.4,88.9 108.4,86.3 111.8,83.8 111.8,88.9 		"/>
		<polyline class="st4" points="115.2,94.3 115.2,88.9 115.2,88.9 		"/>
		
			<rect x="89.3" y="69.1" transform="matrix(6.123234e-17 -1 1 6.123234e-17 0.4574 180.9427)" class="st5" width="2.7" height="42.3"/>
		<polygon class="st5" points="69.6,88.9 69.6,86.3 73,83.8 73,88.9 		"/>
	</g>
	<polygon class="st5" points="147,69.9 147,67.3 149.7,64.8 149.7,69.9 	"/>
	<polygon class="st5" points="154.8,69.9 154.8,67.3 157.5,64.8 157.5,69.9 	"/>
	<polygon class="st5" points="162.6,69.9 162.6,67.3 165.3,64.8 165.3,69.9 	"/>
	<polygon class="st5" points="170.4,69.9 170.4,67.3 173.2,64.8 173.2,69.9 	"/>
	<polyline class="st4" points="175.9,75.4 175.9,69.9 175.9,69.9 	"/>
	<path class="st4" d="M173.4,77.9c1.4,0,2.5-1.1,2.5-2.5"/>
	<line class="st4" x1="141.6" y1="77.9" x2="173.4" y2="77.9"/>
	<path class="st4" d="M139.1,75.4c0,1.4,1.1,2.5,2.5,2.5"/>
	<rect x="141.8" y="77.9" class="st5" width="10.4" height="52.1"/>
	
		<rect x="154.8" y="54.3" transform="matrix(6.123234e-17 -1 1 6.123234e-17 84.8543 227.4541)" class="st5" width="2.7" height="34"/>
	<path class="st5" d="M157.5,87.5L157.5,87.5c1.4,0,2.5,1.1,2.5,2.5v5.8c0,1.4-1.1,2.5-2.5,2.5l0,0c-1.4,0-2.5-1.1-2.5-2.5v-5.8
		C155,88.7,156.1,87.5,157.5,87.5z"/>
	<path class="st4" d="M92.4,45.2L92.4,45.2c1.1,0,2.1,0.9,2.1,2.1V52c0,1.1-0.9,2.1-2.1,2.1l0,0c-1.1,0-2.1-0.9-2.1-2.1v-4.7
		C90.3,46.1,91.2,45.2,92.4,45.2z"/>
	<path class="st4" d="M124.9,84.9L124.9,84.9c1.4,0,2.5,1.1,2.5,2.5v5.8c0,1.4-1.1,2.5-2.5,2.5l0,0c-1.4,0-2.5-1.1-2.5-2.5v-5.8
		C122.4,86,123.5,84.9,124.9,84.9z"/>
	<path class="st4" d="M59.5,84.9L59.5,84.9c1.4,0,2.5,1.1,2.5,2.5v5.8c0,1.4-1.1,2.5-2.5,2.5h0c-1.4,0-2.5-1.1-2.5-2.5v-5.8
		C57,86,58.1,84.9,59.5,84.9z"/>
	<path class="st4" d="M100.4,62L100.4,62c1.4,0,2.5,1.1,2.5,2.5v5.8c0,1.4-1.1,2.5-2.5,2.5l0,0c-1.4,0-2.5-1.1-2.5-2.5v-5.8
		C97.9,63.1,99,62,100.4,62z"/>
	<polygon class="st5" points="42.2,93 27.1,93 27.1,98.9 29.4,98.9 29.4,130 42,130 	"/>
	<polygon class="st4" points="141.6,93 138.7,93 30.1,93 27.1,93 27.1,97 30.1,97 138.7,97 141.6,97 	"/>
	<path class="st5" d="M131.1,102.8L131.1,102.8c1.4,0,2.5,1.1,2.5,2.5v5.8c0,1.4-1.1,2.5-2.5,2.5h0c-1.4,0-2.5-1.1-2.5-2.5v-5.8
		C128.6,104,129.7,102.8,131.1,102.8z"/>
	<path class="st5" d="M115.2,102.8L115.2,102.8c1.4,0,2.5,1.1,2.5,2.5v5.8c0,1.4-1.1,2.5-2.5,2.5h0c-1.4,0-2.5-1.1-2.5-2.5v-5.8
		C112.6,104,113.8,102.8,115.2,102.8z"/>
	<path class="st5" d="M67.7,102.8L67.7,102.8c1.4,0,2.5,1.1,2.5,2.5v5.8c0,1.4-1.1,2.5-2.5,2.5h0c-1.4,0-2.5-1.1-2.5-2.5v-5.8
		C65.1,104,66.3,102.8,67.7,102.8z"/>
	<path class="st5" d="M93.7,103.5L93.7,103.5c5.6,0,10.2,4.6,10.2,10.2V130H83.5v-16.4C83.5,108,88.1,103.5,93.7,103.5z"/>
	<path class="st5" d="M51.7,102.8L51.7,102.8c1.4,0,2.5,1.1,2.5,2.5v5.8c0,1.4-1.1,2.5-2.5,2.5h0c-1.4,0-2.5-1.1-2.5-2.5v-5.8
		C49.2,104,50.3,102.8,51.7,102.8z"/>
	<path class="st7" d="M18.1,57.7c0,0.4-0.1,0.6-0.4,0.8c-0.3,0.2-0.7,0.3-1.1,0.3c-0.4,0-0.8-0.1-1.1-0.3c-0.3-0.2-0.4-0.5-0.4-0.8
		c0-0.4,0.2-0.8,0.7-1c-0.3-0.2-0.5-0.5-0.5-0.9c0-0.3,0.1-0.6,0.4-0.8c0.3-0.2,0.6-0.3,1-0.3c0.4,0,0.7,0.1,1,0.3
		c0.3,0.2,0.4,0.5,0.4,0.8c0,0.4-0.2,0.7-0.5,0.9C17.9,57,18.1,57.3,18.1,57.7z M16.9,58c0.1-0.1,0.1-0.2,0.1-0.3s0-0.2-0.1-0.3
		s-0.2-0.1-0.4-0.2c-0.2,0.1-0.3,0.1-0.4,0.2c-0.1,0.1-0.1,0.2-0.1,0.3s0,0.2,0.1,0.3c0.1,0.1,0.2,0.1,0.4,0.1
		C16.7,58.1,16.9,58,16.9,58z M16.2,55.7c-0.1,0.1-0.1,0.1-0.1,0.2c0,0.1,0,0.2,0.1,0.2c0.1,0.1,0.2,0.1,0.3,0.2
		c0.1-0.1,0.3-0.1,0.3-0.2c0.1-0.1,0.1-0.1,0.1-0.2c0-0.1,0-0.2-0.1-0.2c-0.1-0.1-0.2-0.1-0.3-0.1C16.4,55.6,16.3,55.6,16.2,55.7z"
		/>
	<path class="st7" d="M97.2,29.1c0,0.9-0.4,1.7-1.2,2.3c-0.8,0.6-1.8,0.8-3,0.8c-1.2,0-2.2-0.3-3-0.8C89.4,30.8,89,30,89,29.1
		c0-1.2,0.6-2,1.8-2.6c-0.9-0.6-1.4-1.4-1.4-2.4c0-0.9,0.3-1.6,1-2.1c0.7-0.5,1.6-0.8,2.6-0.8c1.1,0,1.9,0.3,2.6,0.8
		c0.7,0.5,1,1.2,1,2.1c0,1-0.5,1.8-1.4,2.4C96.6,27.1,97.2,27.9,97.2,29.1z M94.2,29.7c0.2-0.2,0.4-0.4,0.4-0.7s-0.1-0.5-0.4-0.8
		c-0.2-0.2-0.6-0.4-1.1-0.6c-0.5,0.2-0.8,0.4-1,0.6c-0.2,0.2-0.4,0.5-0.4,0.8s0.1,0.5,0.4,0.7c0.2,0.2,0.6,0.3,1.1,0.3
		C93.6,30,93.9,29.9,94.2,29.7z M92.3,23.6C92.1,23.8,92,24,92,24.2c0,0.2,0.1,0.4,0.3,0.6c0.2,0.2,0.5,0.4,0.9,0.5
		c0.4-0.2,0.7-0.4,0.9-0.6c0.2-0.2,0.3-0.4,0.3-0.6c0-0.3-0.1-0.5-0.3-0.6c-0.2-0.2-0.5-0.2-0.8-0.2C92.8,23.4,92.5,23.5,92.3,23.6z
		"/>
	<line class="st2" x1="19.9" y1="50.7" x2="19.9" y2="69.8"/>
	<path class="st7" d="M163.1,59.7c0,0.4-0.1,0.6-0.4,0.8c-0.3,0.2-0.7,0.3-1.1,0.3c-0.4,0-0.8-0.1-1.1-0.3c-0.3-0.2-0.4-0.5-0.4-0.8
		c0-0.4,0.2-0.8,0.7-1c-0.3-0.2-0.5-0.5-0.5-0.9c0-0.3,0.1-0.6,0.4-0.8c0.3-0.2,0.6-0.3,1-0.3c0.4,0,0.7,0.1,1,0.3
		c0.3,0.2,0.4,0.5,0.4,0.8c0,0.4-0.2,0.7-0.5,0.9C162.9,59,163.1,59.3,163.1,59.7z M161.9,60c0.1-0.1,0.1-0.2,0.1-0.3s0-0.2-0.1-0.3
		s-0.2-0.1-0.4-0.2c-0.2,0.1-0.3,0.1-0.4,0.2s-0.1,0.2-0.1,0.3s0,0.2,0.1,0.3s0.2,0.1,0.4,0.1C161.7,60.1,161.9,60,161.9,60z
		 M161.2,57.7c-0.1,0.1-0.1,0.1-0.1,0.2c0,0.1,0,0.2,0.1,0.2c0.1,0.1,0.2,0.1,0.3,0.2c0.1-0.1,0.3-0.1,0.3-0.2
		c0.1-0.1,0.1-0.1,0.1-0.2c0-0.1,0-0.2-0.1-0.2c-0.1-0.1-0.2-0.1-0.3-0.1C161.4,57.6,161.3,57.6,161.2,57.7z"/>
	<rect x="78.6" y="43.3" class="st5" width="10.4" height="27.3"/>
	<rect x="77.1" y="55.6" class="st4" width="31.2" height="2.7"/>
	<path class="st4" d="M84.4,62L84.4,62c1.4,0,2.5,1.1,2.5,2.5v5.8c0,1.4-1.1,2.5-2.5,2.5l0,0c-1.4,0-2.5-1.1-2.5-2.5v-5.8
		C81.8,63.1,83,62,84.4,62z"/>
	<polygon class="st4" points="134.9,70.4 132.6,70.4 48.5,70.4 46.2,70.4 46.2,74.4 48.5,74.4 132.6,74.4 134.9,74.4 	"/>
</g>
<path class="st8" d="M161.9,69.5"/>
<polygon class="st5" points="1.7,70.1 1.7,67.5 4.4,65 4.4,70.1 "/>
</svg>
