<?xml version="1.0" encoding="utf-8"?>
<!-- Generator: Adobe Illustrator 22.0.1, SVG Export Plug-In . SVG Version: 6.00 Build 0)  -->
<svg version="1.1" id="Layer_1" xmlns="http://www.w3.org/2000/svg" xmlns:xlink="http://www.w3.org/1999/xlink" x="0px" y="0px"
	 width="180.9px" height="134.2px" viewBox="0 0 180.9 134.2" style="enable-background:new 0 0 180.9 134.2;" xml:space="preserve"
	>
<style type="text/css">
	.st0{fill:#74BF43;}
	.st1{fill:none;stroke:#AAAAAA;stroke-miterlimit:10;}
	.st2{fill:#C3C3C3;}
	.st3{fill:#AAAAAA;}
	.st4{fill:#777777;}
	.st5{fill:#0B7FD9;}
	.st6{fill:#0060BF;}
	.st7{fill:#B7743E;stroke:#A2632F;stroke-width:0.5;stroke-miterlimit:10;}
	.st8{fill:none;stroke:#924802;stroke-width:0.5;stroke-miterlimit:10;}
	.st9{clip-path:url(#SVGID_2_);fill:none;stroke:#A2632F;stroke-width:0.5064;stroke-miterlimit:10;}
	.st10{fill:#00568C;}
	.st11{fill:#0F78BF;}
	.st12{fill:#EACD82;}
	.st13{fill:#FFFFFF;}
	.st14{font-family:'Bangers-Regular';}
	.st15{font-size:19.5495px;}
	.st16{letter-spacing:3;}
</style>
<path class="st0" d="M176.1,134.2H4.3c-2.1,0-3.7-1.7-3.7-3.7l0,0c0-2.1,1.7-3.7,3.7-3.7h171.8c2.1,0,3.7,1.7,3.7,3.7l0,0
	C179.9,132.5,178.2,134.2,176.1,134.2z"/>
<g>
	<line class="st1" x1="158.1" y1="52.4" x2="158.1" y2="71.4"/>
	<polygon class="st2" points="135.5,70.4 133.2,70.4 49.1,70.4 46.8,70.4 46.8,74.4 49.1,74.4 49.1,92.9 133.2,92.9 133.2,74.4 
		135.5,74.4 	"/>
	<path class="st3" d="M36.1,64.8l-2.7,2.5v2.6H31v-2.6l-2.7-2.5l-2.7,2.5v2.6h-2.4v-2.6l-2.7-2.5l-2.7,2.5v2.6h-2.4v-2.6l-2.7-2.5
		l-2.7,2.5v2.6H7.5v-2.6l-2.7-2.5l-2.7,2.5v2.6v5.5c0,1.4,1.1,2.5,2.5,2.5h31.7c1.4,0,2.5-1.1,2.5-2.5v-5.5h0v-2.6L36.1,64.8z"/>
	<rect x="4.7" y="77.9" class="st2" width="31.5" height="52.1"/>
	<rect x="4.7" y="77.9" class="st3" width="20.9" height="52.1"/>
	<polygon class="st4" points="9.9,69.9 9.9,67.3 12.6,64.8 12.6,69.9 	"/>
	<polygon class="st4" points="17.7,69.9 17.7,67.3 20.4,64.8 20.4,69.9 	"/>
	<polygon class="st4" points="25.5,69.9 25.5,67.3 28.3,64.8 28.3,69.9 	"/>
	<polygon class="st4" points="33.4,69.9 33.4,67.3 36.1,64.8 36.1,69.9 	"/>
	<polyline class="st3" points="38.8,75.4 38.8,69.9 38.8,69.9 	"/>
	<path class="st3" d="M36.3,77.9c1.4,0,2.5-1.1,2.5-2.5"/>
	<line class="st3" x1="4.5" y1="77.9" x2="36.3" y2="77.9"/>
	<rect x="4.7" y="77.9" class="st4" width="10.4" height="52.1"/>
	<rect x="49.1" y="74.2" class="st4" width="10.4" height="18.9"/>
	
		<rect x="17.7" y="54.2" transform="matrix(6.123234e-17 -1 1 6.123234e-17 -52.1868 90.3274)" class="st4" width="2.7" height="34"/>
	<path class="st4" d="M20.4,87.5L20.4,87.5c1.4,0,2.5,1.1,2.5,2.5v5.8c0,1.4-1.1,2.5-2.5,2.5h0c-1.4,0-2.5-1.1-2.5-2.5V90
		C17.9,88.6,19,87.5,20.4,87.5z"/>
	<path class="st3" d="M173.8,64.8l-2.7,2.5v2.6h-2.4v-2.6l-2.7-2.5l-2.7,2.5v2.6h-2.4v-2.6l-2.7-2.5l-2.7,2.5v2.6H153v-2.6l-2.7-2.5
		l-2.7,2.5v2.6h-2.4v-2.6l-2.7-2.5l-2.7,2.5v2.6v5.5c0,1.4,1.1,2.5,2.5,2.5H174c1.4,0,2.5-1.1,2.5-2.5v-5.5h0v-2.6L173.8,64.8z"/>
	<rect x="142.4" y="77.9" class="st2" width="31.5" height="52.1"/>
	<path class="st2" d="M142.4,93L142.4,93H27.7v5.9H30V130h112.3C142.4,130,142.3,92.9,142.4,93z"/>
	<rect x="79.2" y="43.2" class="st2" width="28.2" height="44"/>
	<rect x="76.3" y="38" class="st3" width="34" height="5.2"/>
	<polygon class="st5" points="93.7,0 109.5,38 77.2,38 	"/>
	<polyline class="st6" points="93.3,38 77.2,38 93.7,0 93.3,38 	"/>
	<rect x="142.4" y="77.9" class="st3" width="20.9" height="52.1"/>
	<polygon class="st4" points="139.8,69.9 139.8,67.3 142.5,64.8 142.5,69.9 	"/>
	<g>
		<path class="st3" d="M112.5,83.7l-3.4,2.5v2.6h-3v-2.6l-3.3-2.5l-3.4,2.5v2.6h-3v-2.6L93,83.7l-3.4,2.5v2.6h-3v-2.6l-3.3-2.5
			l-3.4,2.5v2.6h-3v-2.6l-3.3-2.5l-3.4,2.5v2.6v5.5c0,1.4,1.4,2.5,3.1,2.5h39.4c1.7,0,3.1-1.1,3.1-2.5v-5.5h0v-2.6L112.5,83.7z"/>
		<polygon class="st4" points="79.9,88.8 79.9,86.2 83.3,83.7 83.3,88.8 		"/>
		<polygon class="st4" points="89.6,88.8 89.6,86.2 93,83.7 93,88.8 		"/>
		<polygon class="st4" points="99.3,88.8 99.3,86.2 102.7,83.7 102.7,88.8 		"/>
		<polygon class="st4" points="109.1,88.8 109.1,86.2 112.5,83.7 112.5,88.8 		"/>
		<polyline class="st3" points="115.8,94.3 115.8,88.8 115.8,88.8 		"/>
		
			<rect x="89.9" y="69.1" transform="matrix(6.123234e-17 -1 1 6.123234e-17 1.117 181.5167)" class="st4" width="2.7" height="42.3"/>
		<polygon class="st4" points="70.2,88.8 70.2,86.2 73.6,83.7 73.6,88.8 		"/>
	</g>
	<polygon class="st4" points="147.6,69.9 147.6,67.3 150.3,64.8 150.3,69.9 	"/>
	<polygon class="st4" points="155.4,69.9 155.4,67.3 158.1,64.8 158.1,69.9 	"/>
	<polygon class="st4" points="163.2,69.9 163.2,67.3 166,64.8 166,69.9 	"/>
	<polygon class="st4" points="171.1,69.9 171.1,67.3 173.8,64.8 173.8,69.9 	"/>
	<polyline class="st3" points="176.5,75.4 176.5,69.9 176.5,69.9 	"/>
	<path class="st3" d="M174,77.9c1.4,0,2.5-1.1,2.5-2.5"/>
	<line class="st3" x1="142.2" y1="77.9" x2="174" y2="77.9"/>
	<path class="st3" d="M139.8,75.4c0,1.4,1.1,2.5,2.5,2.5"/>
	<rect x="142.4" y="77.9" class="st4" width="10.4" height="52.1"/>
	
		<rect x="155.4" y="54.2" transform="matrix(6.123234e-17 -1 1 6.123234e-17 85.5139 228.0281)" class="st4" width="2.7" height="34"/>
	<path class="st4" d="M158.1,87.5L158.1,87.5c1.4,0,2.5,1.1,2.5,2.5v5.8c0,1.4-1.1,2.5-2.5,2.5l0,0c-1.4,0-2.5-1.1-2.5-2.5V90
		C155.6,88.6,156.7,87.5,158.1,87.5z"/>
	<path class="st3" d="M93,45.1L93,45.1c1.1,0,2.1,0.9,2.1,2.1v4.7c0,1.1-0.9,2.1-2.1,2.1h0c-1.1,0-2.1-0.9-2.1-2.1v-4.7
		C90.9,46.1,91.9,45.1,93,45.1z"/>
	<path class="st3" d="M125.5,84.8L125.5,84.8c1.4,0,2.5,1.1,2.5,2.5v5.8c0,1.4-1.1,2.5-2.5,2.5l0,0c-1.4,0-2.5-1.1-2.5-2.5v-5.8
		C123,86,124.1,84.8,125.5,84.8z"/>
	<path class="st3" d="M60.1,84.8L60.1,84.8c1.4,0,2.5,1.1,2.5,2.5v5.8c0,1.4-1.1,2.5-2.5,2.5h0c-1.4,0-2.5-1.1-2.5-2.5v-5.8
		C57.6,86,58.7,84.8,60.1,84.8z"/>
	<path class="st3" d="M101,61.9L101,61.9c1.4,0,2.5,1.1,2.5,2.5v5.8c0,1.4-1.1,2.5-2.5,2.5l0,0c-1.4,0-2.5-1.1-2.5-2.5v-5.8
		C98.5,63,99.6,61.9,101,61.9z"/>
	<polygon class="st4" points="42.8,93 27.7,93 27.7,98.9 30,98.9 30,130 42.6,130 	"/>
	<polygon class="st3" points="142.2,93 139.3,93 30.7,93 27.7,93 27.7,97 30.7,97 139.3,97 142.2,97 	"/>
	<path class="st4" d="M131.7,102.8L131.7,102.8c1.4,0,2.5,1.1,2.5,2.5v5.8c0,1.4-1.1,2.5-2.5,2.5l0,0c-1.4,0-2.5-1.1-2.5-2.5v-5.8
		C129.2,103.9,130.3,102.8,131.7,102.8z"/>
	<path class="st4" d="M115.8,102.8L115.8,102.8c1.4,0,2.5,1.1,2.5,2.5v5.8c0,1.4-1.1,2.5-2.5,2.5h0c-1.4,0-2.5-1.1-2.5-2.5v-5.8
		C113.3,103.9,114.4,102.8,115.8,102.8z"/>
	<path class="st4" d="M68.3,102.8L68.3,102.8c1.4,0,2.5,1.1,2.5,2.5v5.8c0,1.4-1.1,2.5-2.5,2.5h0c-1.4,0-2.5-1.1-2.5-2.5v-5.8
		C65.7,103.9,66.9,102.8,68.3,102.8z"/>
	<path class="st7" d="M99.3,130H84.1v-16.4c0-5.6,4.6-10.2,10.2-10.2h0c5.6,0,10.2,4.6,10.2,10.2V130H99.3"/>
	<path class="st4" d="M52.3,102.8L52.3,102.8c1.4,0,2.5,1.1,2.5,2.5v5.8c0,1.4-1.1,2.5-2.5,2.5h0c-1.4,0-2.5-1.1-2.5-2.5v-5.8
		C49.8,103.9,51,102.8,52.3,102.8z"/>
	<line class="st1" x1="20.5" y1="50.7" x2="20.5" y2="69.7"/>
	<rect x="79.2" y="43.2" class="st4" width="10.4" height="27.3"/>
	<rect x="77.8" y="55.6" class="st3" width="31.2" height="2.7"/>
	<path class="st3" d="M85,61.9L85,61.9c1.4,0,2.5,1.1,2.5,2.5v5.8c0,1.4-1.1,2.5-2.5,2.5l0,0c-1.4,0-2.5-1.1-2.5-2.5v-5.8
		C82.5,63,83.6,61.9,85,61.9z"/>
	<polygon class="st3" points="135.5,70.4 133.2,70.4 49.1,70.4 46.8,70.4 46.8,74.4 49.1,74.4 133.2,74.4 135.5,74.4 	"/>
	<path class="st8" d="M104.5,129.9"/>
	<path class="st8" d="M104.5,103.3"/>
	<g>
		<defs>
			<path id="SVGID_1_" d="M99.3,130H84.1v-16.4c0-5.6,4.6-10.2,10.2-10.2h0c5.6,0,10.2,4.6,10.2,10.2V130H99.3"/>
		</defs>
		<clipPath id="SVGID_2_">
			<use xlink:href="#SVGID_1_"  style="overflow:visible;"/>
		</clipPath>
		<rect x="89.2" y="102.9" class="st9" width="5.1" height="27.3"/>
		<polyline class="st9" points="99.4,130.2 94.3,130.2 94.3,102.9 99.4,102.9 99.4,130.2 		"/>
	</g>
	<polygon class="st10" points="35.3,52 26.3,52 26.3,59.8 35.3,59.8 29.9,55.9 	"/>
	<rect x="20" y="50.7" class="st11" width="8.9" height="7.7"/>
	<polygon class="st10" points="172.9,53.7 164,53.7 164,61.4 172.9,61.4 167.6,57.6 	"/>
	<rect x="157.7" y="52.4" class="st11" width="8.9" height="7.7"/>
</g>
<path class="st12" d="M162.5,69.5"/>
<text transform="matrix(1 0 0 1 88.1585 30.625)" class="st13 st14 st15 st16">4</text>
<polygon class="st4" points="2.1,69.9 2.1,67.3 4.8,64.8 4.8,69.9 "/>
</svg>
