<?xml version="1.0" encoding="utf-8"?>
<!-- Generator: Adobe Illustrator 22.0.1, SVG Export Plug-In . SVG Version: 6.00 Build 0)  -->
<svg version="1.1" id="Layer_1" xmlns="http://www.w3.org/2000/svg" xmlns:xlink="http://www.w3.org/1999/xlink" x="0px" y="0px"
	 width="23.8px" height="15.6px" viewBox="0 0 23.8 15.6" style="enable-background:new 0 0 23.8 15.6;" xml:space="preserve">
<style type="text/css">
	.st0{fill:#FFD341;stroke:#FFA82D;stroke-miterlimit:10;}
</style>
<path class="st0" d="M19.6,15.1l-4.2,0l-0.2,0l-10.6,0c-2.3,0-4.1-1.9-4.1-4.2c0-1.6,0.9-3.1,2.3-3.8l0.4-0.2l0.1-0.5
	C3.7,4.8,5,3.7,6.5,3.7c0.3,0,0.7,0.1,1,0.2l0.8,0.3l0.4-0.7c1.1-1.9,2.9-3,5-3c3.2,0,5.8,2.7,5.8,5.9l0,0.8l0.8,0.2
	c1.8,0.3,3.1,1.9,3.1,3.8C23.3,13.3,21.7,15.1,19.6,15.1z"/>
</svg>
