<?xml version="1.0" encoding="utf-8"?>
<!-- Generator: Adobe Illustrator 22.0.1, SVG Export Plug-In . SVG Version: 6.00 Build 0)  -->
<svg version="1.1" id="Layer_1" xmlns="http://www.w3.org/2000/svg" xmlns:xlink="http://www.w3.org/1999/xlink" x="0px" y="0px"
	 width="12.1px" height="12.3px" viewBox="0 0 12.1 12.3" style="enable-background:new 0 0 12.1 12.3;" xml:space="preserve">
<style type="text/css">
	.st0{fill:#FFD949;}
	.st1{fill:#F4BF1A;}
	.st2{fill:#DCA815;}
</style>
<g id="XMLID_1_">
	<path id="XMLID_14_" class="st0" d="M6.7,12.2c-2.9,0-5.3-2.7-5.3-6s2.4-6,5.3-6s5.3,2.7,5.3,6S9.6,12.2,6.7,12.2"/>
	<path id="XMLID_13_" class="st1" d="M1.4,6.1c0-3.1,2-5.6,4.6-6c-0.2,0-0.4,0-0.6,0c-2.9,0-5.3,2.7-5.3,6s2.4,6,5.3,6
		c0.2,0,0.4,0,0.6,0C3.4,11.7,1.4,9.2,1.4,6.1"/>
	<path id="XMLID_12_" class="st1" d="M6.7,11L6.7,11c-0.2,0-0.3,0-0.5,0c-0.1,0-0.2-0.1-0.2-0.2c0-0.1,0.1-0.2,0.2-0.2
		c0.1,0,0.3,0,0.4,0c0.1,0,0.2,0.1,0.2,0.2S6.8,11,6.7,11 M7.9,10.7c-0.1,0-0.2-0.1-0.2-0.1c0-0.1,0-0.2,0.1-0.3
		c0.1,0,0.2-0.1,0.4-0.2c0.1-0.1,0.2,0,0.3,0.1c0.1,0.1,0,0.2-0.1,0.3C8.3,10.6,8.2,10.7,7.9,10.7C8,10.7,8,10.7,7.9,10.7 M5,10.6
		C5,10.6,5,10.6,5,10.6c-0.2-0.1-0.4-0.2-0.5-0.2c-0.1-0.1-0.1-0.2-0.1-0.3C4.5,9.9,4.7,9.9,4.8,10C4.9,10,5,10.1,5.1,10.2
		c0.1,0.1,0.1,0.2,0.1,0.3C5.2,10.5,5.1,10.6,5,10.6 M9.4,9.8c-0.1,0-0.1,0-0.2-0.1c-0.1-0.1-0.1-0.2,0-0.3c0.1-0.1,0.2-0.2,0.3-0.3
		c0.1-0.1,0.2-0.1,0.3,0c0.1,0.1,0.1,0.2,0,0.3C9.7,9.5,9.6,9.7,9.5,9.8C9.5,9.8,9.4,9.8,9.4,9.8 M3.7,9.5c-0.1,0-0.1,0-0.2-0.1
		C3.5,9.3,3.4,9.2,3.3,9.1C3.2,9,3.2,8.8,3.3,8.8c0.1-0.1,0.2,0,0.3,0.1C3.7,9,3.8,9.1,3.9,9.2c0.1,0.1,0.1,0.2,0,0.3
		C3.8,9.5,3.8,9.5,3.7,9.5 M10.3,8.4C10.3,8.4,10.2,8.4,10.3,8.4c-0.2-0.1-0.2-0.2-0.2-0.3c0.1-0.1,0.1-0.3,0.1-0.4
		c0-0.1,0.2-0.2,0.3-0.1c0.1,0,0.2,0.2,0.1,0.3c0,0.1-0.1,0.3-0.2,0.4C10.5,8.4,10.4,8.4,10.3,8.4 M2.9,8C2.8,8,2.7,8,2.7,7.9
		c0-0.1-0.1-0.3-0.1-0.4c0-0.1,0-0.2,0.2-0.3c0.1,0,0.2,0,0.3,0.2c0,0.1,0.1,0.3,0.1,0.4C3.1,7.9,3.1,8,2.9,8C2.9,8,2.9,8,2.9,8
		 M10.7,6.8C10.7,6.8,10.7,6.8,10.7,6.8c-0.1,0-0.2-0.1-0.2-0.2c0-0.1,0-0.3,0-0.4c0-0.1,0.1-0.2,0.2-0.2c0.1,0,0.2,0.1,0.2,0.2v0
		c0,0.1,0,0.3,0,0.4C10.9,6.7,10.8,6.8,10.7,6.8 M2.6,6.4c-0.1,0-0.2-0.1-0.2-0.2v0c0-0.1,0-0.3,0-0.4c0-0.1,0.1-0.2,0.2-0.2
		c0.1,0,0.2,0.1,0.2,0.2c0,0.1,0,0.3,0,0.4C2.8,6.3,2.7,6.4,2.6,6.4 M10.6,5.1c-0.1,0-0.2-0.1-0.2-0.2c0-0.1-0.1-0.3-0.1-0.4
		c0-0.1,0-0.2,0.1-0.3c0.1,0,0.2,0,0.3,0.1c0,0.1,0.1,0.3,0.1,0.4C10.8,4.9,10.7,5,10.6,5.1C10.6,5.1,10.6,5.1,10.6,5.1 M2.9,4.7
		C2.9,4.7,2.8,4.7,2.9,4.7c-0.2,0-0.2-0.2-0.2-0.3c0-0.1,0.1-0.3,0.2-0.4c0-0.1,0.2-0.2,0.3-0.1c0.1,0,0.2,0.2,0.1,0.3
		C3.2,4.3,3.1,4.4,3.1,4.5C3.1,4.6,3,4.7,2.9,4.7 M9.9,3.5c-0.1,0-0.1,0-0.2-0.1C9.6,3.3,9.5,3.2,9.5,3.1C9.4,3,9.4,2.9,9.5,2.8
		s0.2-0.1,0.3,0c0.1,0.1,0.2,0.2,0.3,0.4c0.1,0.1,0,0.2-0.1,0.3C10,3.5,9.9,3.5,9.9,3.5 M3.7,3.2c0,0-0.1,0-0.1,0
		c-0.1-0.1-0.1-0.2,0-0.3c0.1-0.1,0.2-0.2,0.3-0.3c0.1-0.1,0.2-0.1,0.3,0c0.1,0.1,0.1,0.2,0,0.3C4.1,2.9,4,3,3.9,3.1
		C3.8,3.2,3.8,3.2,3.7,3.2 M8.7,2.3c0,0-0.1,0-0.1,0C8.4,2.2,8.3,2.2,8.2,2.1C8.1,2,8.1,1.9,8.1,1.8c0.1-0.1,0.2-0.1,0.3-0.1
		c0.1,0.1,0.3,0.1,0.4,0.2C8.9,2,8.9,2.1,8.9,2.2C8.8,2.3,8.7,2.3,8.7,2.3 M5,2.1c-0.1,0-0.2,0-0.2-0.1c-0.1-0.1,0-0.2,0.1-0.3
		c0.1-0.1,0.3-0.1,0.4-0.2c0.1,0,0.2,0,0.3,0.1c0,0.1,0,0.2-0.1,0.3C5.4,2,5.2,2,5,2.1C5.1,2.1,5.1,2.1,5,2.1 M7.1,1.7
		C7.1,1.7,7.1,1.7,7.1,1.7c-0.2,0-0.3,0-0.4,0c-0.1,0-0.2-0.1-0.2-0.2s0.1-0.2,0.2-0.2h0c0.1,0,0.3,0,0.4,0c0.1,0,0.2,0.1,0.2,0.2
		C7.3,1.7,7.2,1.7,7.1,1.7"/>
	<path id="XMLID_11_" class="st2" d="M1.4,6.4H0.1c0,0.1,0,0.3,0,0.4h1.3C1.4,6.6,1.4,6.5,1.4,6.4"/>
	<path id="XMLID_10_" class="st2" d="M1.5,5.3H0.2c0,0.1,0,0.3,0,0.4h1.3C1.4,5.6,1.4,5.4,1.5,5.3"/>
	<path id="XMLID_9_" class="st2" d="M1.5,7.4H0.2c0,0.1,0.1,0.3,0.1,0.4h1.3C1.6,7.7,1.5,7.6,1.5,7.4"/>
	<path id="XMLID_8_" class="st2" d="M1.8,8.5H0.5c0.1,0.1,0.1,0.3,0.2,0.4H2C1.9,8.8,1.9,8.6,1.8,8.5"/>
	<path id="XMLID_7_" class="st2" d="M1.7,4.2H0.4c0,0.1-0.1,0.3-0.1,0.4h1.3C1.6,4.5,1.6,4.3,1.7,4.2"/>
	<path id="XMLID_6_" class="st2" d="M2.1,3.1H0.8C0.7,3.3,0.7,3.4,0.6,3.6h1.3C2,3.4,2,3.3,2.1,3.1"/>
	<path id="XMLID_5_" class="st2" d="M3,1.8H1.7C1.6,2,1.5,2.1,1.3,2.3h1.3C2.7,2.1,2.9,2,3,1.8"/>
	<path id="XMLID_4_" class="st2" d="M4.3,0.8H3C2.8,0.9,2.6,1,2.4,1.2h1.3C3.9,1,4.1,0.9,4.3,0.8"/>
	<path id="XMLID_3_" class="st2" d="M2.5,9.8H1.2c0.1,0.1,0.2,0.3,0.3,0.4h1.3C2.7,10.1,2.6,9.9,2.5,9.8"/>
	<path id="XMLID_2_" class="st2" d="M2.1,10.9c0.2,0.2,0.4,0.3,0.5,0.4H4c-0.2-0.1-0.4-0.3-0.5-0.4H2.1z"/>
</g>
</svg>
