<?xml version="1.0" encoding="utf-8"?>
<!-- Generator: Adobe Illustrator 22.0.1, SVG Export Plug-In . SVG Version: 6.00 Build 0)  -->
<svg version="1.1" id="Layer_1" xmlns="http://www.w3.org/2000/svg" xmlns:xlink="http://www.w3.org/1999/xlink" x="0px" y="0px"
	 width="15.7px" height="15.7px" viewBox="0 0 15.7 15.7" style="enable-background:new 0 0 15.7 15.7;" xml:space="preserve">
<style type="text/css">
	.st0{fill:#FFD341;}
	.st1{fill:#FFA82D;}
	.st2{fill:none;stroke:#FFB540;stroke-width:0.731;stroke-miterlimit:10;stroke-dasharray:1.4767,1.4767;}
</style>
<circle class="st0" cx="7.8" cy="7.8" r="7.8"/>
<g>
	<path class="st1" d="M6.7,11.7c0-0.1,0-0.2,0.1-0.3c0-0.1,0-0.2,0.1-0.3c0-0.1,0-0.2,0.1-0.3c-0.2,0-0.4-0.1-0.6-0.2
		c-0.2-0.1-0.4-0.3-0.6-0.6l0.6-1.3c0,0.1,0.1,0.2,0.2,0.2c0.1,0.1,0.1,0.2,0.2,0.2c0.1,0.1,0.2,0.1,0.2,0.2c0.1,0,0.2,0.1,0.2,0.1
		c0.2,0,0.3,0,0.4-0.1c0.1-0.1,0.2-0.3,0.2-0.5c0-0.1,0-0.2-0.1-0.3C7.6,8.5,7.5,8.4,7.4,8.3C7.3,8.2,7.2,8.1,7,8
		C6.9,7.8,6.8,7.7,6.7,7.6C6.6,7.5,6.5,7.3,6.4,7.2C6.3,7,6.3,6.9,6.3,6.7c0-0.2,0-0.3,0.1-0.5C6.5,6,6.6,5.9,6.7,5.7S7,5.5,7.2,5.4
		c0.2-0.1,0.4-0.2,0.5-0.3c0-0.2,0.1-0.4,0.1-0.5C7.9,4.4,8,4.3,8,4.1L9.2,4L8.8,4.9c0.2,0,0.3,0,0.4,0.1C9.4,5,9.5,5,9.6,5.1
		c0.1,0.1,0.2,0.2,0.2,0.3C9.9,5.6,10,5.7,10,5.9c0,0.1,0,0.2,0,0.2c0,0.1,0,0.2,0,0.2L8.7,6.7c0-0.1,0-0.1,0-0.1c0,0,0,0,0-0.1
		c0-0.2,0-0.3-0.1-0.4C8.5,6,8.5,6,8.4,6C8.3,6,8.2,6,8.2,6C8.1,6.1,8.1,6.1,8,6.1C8,6.2,7.9,6.2,7.9,6.3c0,0.1,0,0.1,0,0.2
		c0,0.1,0,0.2,0.1,0.3C8,6.8,8.1,6.9,8.2,7c0.1,0.1,0.2,0.2,0.4,0.3C8.8,7.4,8.9,7.5,9,7.7C9.1,7.8,9.2,8,9.3,8.2
		c0.1,0.2,0.1,0.4,0.1,0.7c0,0.2,0,0.5-0.1,0.7C9.2,9.7,9.1,9.9,9,10c-0.1,0.2-0.3,0.3-0.5,0.4c-0.2,0.1-0.4,0.2-0.6,0.3
		c0,0.2,0,0.3-0.1,0.5c0,0.2,0,0.3,0,0.3L6.7,11.7z"/>
</g>
<g>
	<circle class="st2" cx="7.8" cy="7.8" r="6.1"/>
</g>
</svg>
