<?xml version="1.0" encoding="utf-8"?>
<!-- Generator: Adobe Illustrator 22.0.1, SVG Export Plug-In . SVG Version: 6.00 Build 0)  -->
<svg version="1.1" id="Layer_1" xmlns="http://www.w3.org/2000/svg" xmlns:xlink="http://www.w3.org/1999/xlink" x="0px" y="0px"
	 viewBox="0 0 380 116.5" style="enable-background:new 0 0 380 116.5;" xml:space="preserve">
<style type="text/css">
	.st0{clip-path:url(#SVGID_2_);fill:#FFFFFF;}
	.st1{clip-path:url(#SVGID_2_);fill:#F9F9F9;}
</style>
<g>
	<defs>
		<rect id="SVGID_1_" width="380" height="116.5"/>
	</defs>
	<clipPath id="SVGID_2_">
		<use xlink:href="#SVGID_1_"  style="overflow:visible;"/>
	</clipPath>
	<circle class="st0" cx="31.9" cy="27.9" r="55.7"/>
	<circle class="st0" cx="132.2" cy="27.9" r="66.9"/>
	<circle class="st0" cx="237.6" cy="-4.6" r="85.1"/>
	<circle class="st0" cx="345" cy="27.9" r="59.8"/>
	<path class="st0" d="M345-31.9c-9,0-17.5,2-25.1,5.5c-9.6-36.4-42.8-63.3-82.3-63.3c-36.7,0-67.9,23.2-79.9,55.7
		c-7.9-3.2-16.5-5-25.5-5c-24.1,0-45.2,12.7-57,31.9C65-19.8,49.4-27.9,31.9-27.9c-30.8,0-55.7,25-55.7,55.7s25,55.7,55.7,55.7
		c17.5,0,33.1-8.1,43.3-20.7c11.8,19.1,32.9,31.9,57,31.9c23.3,0,43.9-12,55.9-30.1c14,10,31,15.9,49.5,15.9
		c21.7,0,41.4-8.1,56.4-21.4c10.5,17.1,29.4,28.5,51,28.5c33,0,59.8-26.8,59.8-59.8C404.8-5.2,378.1-31.9,345-31.9z"/>
	<path class="st1" d="M28.9,75.5c-26.3,0-47.6-21.3-47.6-47.6S2.6-19.8,28.9-19.8C1.2,6.2,1.2,49.5,28.9,75.5z"/>
	<path class="st1" d="M138.3-27.9c30.8,0,55.7,25,55.7,55.7s-25,55.7-55.7,55.7C170.7,53.2,170.7,2.5,138.3-27.9z"/>
	<path class="st1" d="M293.5,29.3c3.3,19.9-15.5,39.6-42,44s-50.6-8.3-53.9-28.2C227.2,61.8,270.8,54.6,293.5,29.3z"/>
	<path class="st1" d="M347.1-27.9c30.8,0,55.7,25,55.7,55.7s-25,55.7-55.7,55.7C379.5,53.2,379.5,2.5,347.1-27.9z"/>
</g>
</svg>
