<svg id="Layer_1" data-name="Layer 1" xmlns="http://www.w3.org/2000/svg" xmlns:xlink="http://www.w3.org/1999/xlink" width="982" height="1004" viewBox="0 0 982 1004"><defs><style>.cls-1{fill:none;}.cls-2{clip-path:url(#clip-path);}.cls-3{fill:#d7ba7a;}.cls-4{fill:#74bf43;}.cls-5{fill:#009719;}.cls-6,.cls-7,.cls-9{fill:#1e5c12;}.cls-7{opacity:0.2;}.cls-8{fill:#81ca14;}.cls-9{opacity:0.4;}</style><clipPath id="clip-path"><rect class="cls-1" width="982" height="1004"/></clipPath></defs><title>Artboard 1</title><g class="cls-2"><ellipse class="cls-3" cx="115.67" cy="860.93" rx="321.57" ry="182.37"/><ellipse class="cls-4" cx="116.15" cy="884.18" rx="376.66" ry="213.61"/><path class="cls-5" d="M437.88,856.19c-9,248.52-619.79,244-643.75,10.48-15.14-147.61,2-443.88,2-443.88,0-216.13,139.94-391.33,312.56-391.33h0c173.51,0,314.17,176.11,314.17,393.34C422.88,424.8,437.69,604.67,437.88,856.19Z"/><rect class="cls-6" x="83.38" y="317.8" width="69.83" height="215.57" rx="34.92" ry="34.92"/><rect class="cls-6" x="216.97" y="317.8" width="69.83" height="215.57" rx="34.92" ry="34.92"/><path class="cls-7" d="M-96.44,998.51c-40-13.66-103.44-73.45-109.43-131.84-15.14-147.61,2-443.88,2-443.88,0-216.13,139.94-391.33,312.56-391.33C108.71,31.46-174.24-21.14-96.44,998.51Z"/><ellipse class="cls-3" cx="605.91" cy="1081.41" rx="301.32" ry="170.88"/><ellipse class="cls-4" cx="606.35" cy="1103.2" rx="352.94" ry="200.16"/><path class="cls-8" d="M907.83,1077c-8.42,232.87-580.77,228.66-603.21,9.82-14.19-138.32,1.89-415.93,1.89-415.93,0-202.52,131.13-366.69,292.88-366.69h0c162.58,0,294.38,165,294.38,368.57C893.77,672.74,907.66,841.29,907.83,1077Z"/><rect class="cls-9" x="426.99" y="572.48" width="65.44" height="202" rx="32.72" ry="32.72"/><rect class="cls-9" x="552.17" y="572.48" width="65.44" height="202" rx="32.72" ry="32.72"/><path class="cls-7" d="M797,1215.12c51.51-20.37,108.32-72.94,109.81-127.92,4-148-13.18-412.71-13.18-412.71-.55-208.29-132-369.36-293.74-369.36C599.91,305.13,869.93,259.68,797,1215.12Z"/></g></svg>