<svg id="Layer_1" data-name="Layer 1" xmlns="http://www.w3.org/2000/svg" width="682.23" height="36.45" viewBox="0 0 682.23 36.45"><defs><style>.cls-1{fill:red;}</style></defs><title>Artboard 1</title><path class="cls-1" d="M36.4,36.45H20.8V31.2H15.6V26.1l-5.25-.05v10.4H0V0H31.2V5.25h5.2v15.6H26V26.1H31.2v5.1h5.2ZM26,15.69V5.25H10.35v15.6H20.8V15.69Z"/><path class="cls-1" d="M79.46,36.45H43.06V0h36.4V5.25H53.4v10.4H74.25V20.8H53.4V31.2H79.46Z"/><path class="cls-1" d="M122.51,36.45H112.06V26.05H96.88v10.4H86.11V10.35h5.15V5.25h5.2V0h15.6V5.25h5.25v5.1h5.2ZM112.06,20.8V10.35H107V5.25h-5.25v5.1H96.88V20.8Z"/><path class="cls-1" d="M165.51,26.1h-5.2v5.1h-5.24v5.25h-25.9V0h25.9V5.25h5.24v5.1h5.2Zm-10.4,0V10.35H150V5.25H139.51v26H150V26.1Z"/><path class="cls-1" d="M206,15.65h-5.18V20.8h-5.17V36.45H185.17V20.8H180V15.65h-5.15V0h10.35V15.65h10.45V0H206Z"/><path class="cls-1" d="M294.73,20.8h-5.2v5.25H268.68v10.4H258.33V0h31.2V5.25h5.2Zm-10.45,0V5.25h-15.6V20.8Z"/><path class="cls-1" d="M337.74,36.45h-36.4V0h10.34V31.2h26.06Z"/><path class="cls-1" d="M380.84,36.45H370.39V26.05H355.21v10.4H344.44V10.35h5.15V5.25h5.2V0h15.6V5.25h5.25v5.1h5.2ZM370.39,20.8V10.35h-5.1V5.25H360v5.1h-4.83V20.8Z"/><path class="cls-1" d="M421.25,15.65h-5.18V20.8H410.9V36.45H400.45V20.8h-5.2V15.65H390.1V0h10.35V15.65H410.9V0h10.35Z"/><path class="cls-1" d="M467,36.45h-36.4V0H467V5.25H440.9v10.4h20.85V20.8H440.9V31.2H467Z"/><path class="cls-1" d="M510,36.45h-15.6V31.2h-5.2V26.1L484,26.05v10.4H473.61V0h31.2V5.25H510v15.6H499.56V26.1h5.25v5.1H510ZM499.56,15.69V5.25H484v15.6h10.45V15.69Z"/><path class="cls-1" d="M596.12,31.2h-5.2v5.25h-26V31.2h-5.15V5.25h5.15V0h26V5.25h5.2Zm-10.45,0V5.25h-15.6v26Z"/><path class="cls-1" d="M639.17,36.45H628.72v-5.3h-5.14v-5.1h-5.2V20.8h-5.26V36.45H602.78V0h10.34V5.25h5.26v5.1h5.2v5.3h5.14V0h10.45Z"/><path class="cls-1" d="M682.23,36.45h-36.4V0h36.4V5.25H656.18v10.4H677V20.8H656.18V31.2h26.05Z"/></svg>