<svg id="Layer_1" data-name="Layer 1" xmlns="http://www.w3.org/2000/svg" xmlns:xlink="http://www.w3.org/1999/xlink" width="92.36" height="97.97" viewBox="0 0 92.36 97.97"><defs><style>.cls-1,.cls-10,.cls-18,.cls-6,.cls-9{fill:none;}.cls-2{fill:#fff;}.cls-3{clip-path:url(#clip-path);}.cls-4{fill:#00c3e5;}.cls-5{fill:#01a3ba;}.cls-6{stroke:#fff;stroke-linecap:round;stroke-width:2.29px;}.cls-18,.cls-6{stroke-miterlimit:10;}.cls-13,.cls-7{fill:#f22400;}.cls-22,.cls-7{opacity:0.9;}.cls-8{fill:#3da9f6;}.cls-11,.cls-12,.cls-21,.cls-23,.cls-8{opacity:0.8;}.cls-10,.cls-9{stroke:#000;stroke-linejoin:round;}.cls-9{stroke-width:0.13px;}.cls-10{stroke-width:0.15px;}.cls-11{fill:#fd7800;}.cls-12{fill:#1dcf01;}.cls-13{opacity:0.7;}.cls-14{fill:#74bd43;}.cls-15{fill:#00cbff;}.cls-16{fill:#02b6d4;}.cls-17{fill:#00568b;}.cls-18{stroke:#8ec868;stroke-width:0.83px;}.cls-19{fill:#0f78bd;}.cls-20{fill:#fdb994;}.cls-21{fill:#aadcff;}.cls-22{fill:#ffbec0;}.cls-23{fill:#c2fbb6;}</style><clipPath id="clip-path"><circle class="cls-1" cx="46.18" cy="51.79" r="45.04"/></clipPath></defs><title>Artboard 1</title><circle class="cls-2" cx="46.18" cy="51.79" r="40.46"/><circle class="cls-1" cx="46.18" cy="51.79" r="45.04"/><circle class="cls-1" cx="46.18" cy="51.79" r="45.04"/><g class="cls-3"><path class="cls-4" d="M85,75.21C85,87.25,67.78,97,46.55,97S8.09,87.25,8.09,75.21c0-6.17,1.76-11,.17-32.46,0,0,27.93-.42,38.29-.42,14.6,0,38.27.33,38.27.33C83.2,64.71,85,71.45,85,75.21Z"/><path class="cls-5" d="M72.2,91.84a36.34,36.34,0,0,0,7.47-5.16V55.79L72.2,60.7Z"/><path class="cls-5" d="M52.38,66.39V97.16a58.58,58.58,0,0,0,11.31-2V63.52Z"/><path class="cls-5" d="M20.78,60.4l-7.33-5-.06,31.3a31.81,31.81,0,0,0,7.47,5.17"/><path class="cls-5" d="M29.43,95.13a40,40,0,0,0,11.11,2V66.39l-11-2.06Z"/></g><path class="cls-6" d="M3.31,37.92a45.5,45.5,0,0,0-1.77,7.84"/><path class="cls-6" d="M90.52,43.82a45.2,45.2,0,0,0-1.3-5.34"/><path class="cls-6" d="M89.92,62.58a45.15,45.15,0,0,0,1.3-10.79c0-.71,0-1.42,0-2.12"/><path class="cls-6" d="M1.15,52.65A45,45,0,0,0,87.86,68.89"/><path class="cls-7" d="M21.56,8.82c-.23-3.6-2.95-6.35-6-6.16S10.07,5.93,10.3,9.54s2.8,6.23,5.83,6.18l-.36.78L17,16.42l-.45-.76h.1C19.59,15.28,21.78,12.3,21.56,8.82Z"/><path class="cls-8" d="M29.61,13.8c-.23-3.61-2.95-6.35-6-6.16s-5.45,3.27-5.22,6.88,2.8,6.23,5.83,6.17l-.36.78,1.24-.07-.45-.76h.11C27.67,20.28,29.83,17.28,29.61,13.8Z"/><path class="cls-9" d="M24.42,21.49C22.82,27,21,44.05,21,44.05"/><path class="cls-10" d="M19.11,26.56c-.22,4.1.42,17.55.42,17.55"/><path class="cls-9" d="M16.34,16.51C16.93,23.32,18.76,44,18.76,44"/><path class="cls-11" d="M24.33,18.87c-.23-3.61-2.94-6.36-6-6.16S12.84,16,13.07,19.59s2.81,6.23,5.83,6.17l-.35.78,1.23-.08-.45-.75h.11C22.36,25.35,24.55,22.35,24.33,18.87Z"/><path class="cls-11" d="M75.28,9.77c-.23-3.61-2.94-6.35-6-6.16S63.79,6.88,64,10.49s2.81,6.23,5.83,6.17l-.35.78,1.23-.07-.45-.76h.11C73.31,16.23,75.5,13.25,75.28,9.77Z"/><path class="cls-12" d="M84.28,13.8c-.23-3.61-2.94-6.35-6-6.16S72.79,10.91,73,14.52s2.81,6.23,5.83,6.17l-.35.78,1.24-.07-.46-.76h.11C82.34,20.28,84.5,17.28,84.28,13.8Z"/><path class="cls-9" d="M79.09,21.49C77.5,27,75.68,44.05,75.68,44.05"/><path class="cls-10" d="M73.79,26.56c-.23,4.1.41,17.55.41,17.55"/><path class="cls-9" d="M71,16.51C71.61,23.32,73.44,44,73.44,44"/><path class="cls-13" d="M79,18.87c-.23-3.61-3-6.36-6.05-6.16S67.52,16,67.75,19.59s2.8,6.23,5.83,6.17l-.36.78,1.24-.08L74,25.71h.1C77,25.35,79.23,22.35,79,18.87Z"/><path class="cls-14" d="M84.23,40.39a18,18,0,0,0-4.89-7s-16.46-6.2-32.79-21.95h0C30.22,27.15,13.86,33.26,13.86,33.26A18.22,18.22,0,0,0,9,40.15"/><path class="cls-15" d="M46.55,11.4C30.22,27.18,13.86,33.31,13.86,33.31,10.2,36.65,8.09,40.6,8.09,44.83c0,12.07,17.22,21.86,38.46,21.86S85,56.9,85,44.83c0-4.18-2.07-8.09-5.66-11.42,0,0-16.46-6.22-32.79-22Z"/><path class="cls-16" d="M49.15,13.66a104,104,0,0,0,30.19,19.7,14.41,14.41,0,0,1,3.94,4.93s-11,.07-33.66-24.23Z"/><path class="cls-16" d="M85,44.86S71.08,39.34,50.5,15l-1.14.47s21.55,30.5,34.33,35A12.38,12.38,0,0,0,85,44.86Z"/><path class="cls-16" d="M79.52,56s-7-1.95-29.07-38.39l-.83.61S65.22,56.36,72.17,61C72.17,61,77.39,58.8,79.52,56Z"/><path class="cls-16" d="M49.62,18.2s9.83,42.36,13.92,46.13a35.81,35.81,0,0,1-11.16,2.06S47.72,28.58,48,18.2Z"/><path class="cls-16" d="M43.88,13.66a104,104,0,0,1-30.19,19.7,14.5,14.5,0,0,0-3.95,4.93s11,.07,33.67-24.23Z"/><path class="cls-16" d="M8,44.86S22,39.34,42.53,15l1.14.47s-21.55,30.5-34.33,35A12.38,12.38,0,0,1,8,44.86Z"/><path class="cls-16" d="M13.51,56s7-1.95,29.07-38.39l.83.61S27.81,56.36,20.86,61C20.86,61,15.64,58.8,13.51,56Z"/><path class="cls-16" d="M43.41,18.2S33.58,60.56,29.49,64.33c0,0,4,2,11,2.36,0,0,4.82-38.11,4.58-48.49Z"/><path class="cls-15" d="M40.54,66.39c0,1.3,2.65,2.35,5.92,2.35s5.92-1,5.92-2.35Z"/><path class="cls-15" d="M20.87,61.1c-.48,1.2,1.05,2.93,3.4,3.85s4.65.69,5.12-.52Z"/><path class="cls-15" d="M63.52,64.42c.47,1.21,2.76,1.46,5.12.55s3.89-2.63,3.42-3.84Z"/><path class="cls-15" d="M9.49,50.38c-.54.51-.64,2.34.45,3.88S12.6,56.58,13.45,56Z"/><path class="cls-15" d="M79.41,55.93c.65.37,2.42-.06,3.59-1.55s1.45-3.22.63-3.86Z"/><path class="cls-16" d="M52.38,66.44c.23,1.28,2.93,1.85,6,1.28s5.42-2.07,5.19-3.34Z"/><path class="cls-16" d="M29.65,64.18c-.27,1.37,2,2.95,5,3.55s5.68,0,5.95-1.4Z"/><path class="cls-16" d="M13.42,56c-.73,1.08.34,3.08,2.4,4.47s4.32,1.66,5,.59Z"/><path class="cls-16" d="M72.15,61.12c.75,1.05,3,.74,5-.69s3.06-3.46,2.31-4.52Z"/><path class="cls-16" d="M8.12,44.88A4.74,4.74,0,0,0,7.54,48c.34,1.55,1.15,2.69,1.81,2.54Z"/><path class="cls-16" d="M83.64,50.52A4.71,4.71,0,0,0,85.52,48c.38-1.54.15-2.92-.51-3.09Z"/><path class="cls-15" d="M85,44.94a6.27,6.27,0,0,0,.21-3.66c-.54-1.82-1.5-3.15-2.15-3Z"/><path class="cls-15" d="M9.84,38.29a6.23,6.23,0,0,0-2.08,3c-.49,1.84-.36,3.47.29,3.64Z"/><polygon class="cls-17" points="57.23 0.95 50.79 0.95 50.79 6.48 57.23 6.48 53.38 3.72 57.23 0.95"/><line class="cls-18" x1="46.55" y1="2.1" x2="46.55" y2="11.79"/><path class="cls-16" d="M54.8,18.1c0,2.59-3.69,4.68-8.25,4.68s-8.26-2.09-8.26-4.68L46.55,11Z"/><rect class="cls-19" x="46.29" width="6.4" height="5.53"/><ellipse class="cls-20" cx="21.63" cy="16.22" rx="0.94" ry="1.47" transform="translate(-5.4 16.7) rotate(-37.88)"/><ellipse class="cls-21" cx="27.68" cy="11.56" rx="0.78" ry="1.62" transform="translate(-2.07 15.39) rotate(-30)"/><ellipse class="cls-22" cx="19.09" cy="5.93" rx="0.78" ry="1.62" transform="translate(-0.41 10.34) rotate(-30)"/><ellipse class="cls-22" cx="76.79" cy="16.92" rx="0.94" ry="1.47" transform="matrix(0.87, -0.5, 0.5, 0.87, 1.83, 40.66)"/><ellipse class="cls-23" cx="82.26" cy="12" rx="0.78" ry="1.62" transform="translate(5.02 42.74) rotate(-30)"/><ellipse class="cls-20" cx="72.67" cy="6.63" rx="0.78" ry="1.62" transform="translate(6.42 37.22) rotate(-30)"/></svg>